<?xml version="1.0" encoding="UTF-8"?>
<!DOCTYPE svg PUBLIC "-//W3C//DTD SVG 1.1//EN" "http://www.w3.org/Graphics/SVG/1.1/DTD/svg11.dtd">
<svg xmlns="http://www.w3.org/2000/svg" xml:space="preserve" width="1.96291in" height="0.379346in" version="1.1" style="shape-rendering:geometricPrecision; text-rendering:geometricPrecision; image-rendering:optimizeQuality; fill-rule:evenodd; clip-rule:evenodd"
viewBox="0 0 1962.91 379.35"
 xmlns:xlink="http://www.w3.org/1999/xlink"
 xmlns:xodm="http://www.corel.com/coreldraw/odm/2003">
 <defs>
  <style type="text/css">
    .str0 {stroke:#FEFEFE;stroke-width:15.75;stroke-miterlimit:22.9256}
    .fil2 {fill:#EB4A3A}
    .fil1 {fill:#727376;fill-rule:nonzero}
    .fil0 {fill:#71A2BF;fill-rule:nonzero}
  </style>
 </defs>
 <g id="Layer_x0020_1">
  <metadata id="CorelCorpID_0Corel-Layer"/>
  <g id="_1939421225632">
   <path class="fil0" d="M70 332.91l-70 0 0 -332.91 70 0 0 332.91zm460 -56.25c0,15.56 -5.56,28.89 -16.67,40 -11.11,11.11 -24.44,16.67 -40,16.67 -18.61,0 -33.75,-7.78 -45.35,-23.33 -1.67,-0.83 -80.21,-104.17 -235.48,-310l87.08 0 180.83 237.5 0 -237.5 69.58 0 0 276.67zm-99.17 56.67l-87.08 0 -178.75 -237.5 0 237.5 -69.58 0 0 -277.01c0,-15.56 5.56,-28.89 16.67,-39.86 11.11,-10.97 24.44,-16.46 40,-16.46 18.61,0 33.75,7.78 45.42,23.33 0.83,0.83 78.61,104.17 233.33,310z"/>
   <path class="fil1" d="M888.33 70l-131.25 0 0 263.33 -70.42 0 0 -263.33 -131.25 0 0 -70 332.91 0 0 70zm358.33 263.33l-275.83 0c-15.83,0 -29.31,-5.56 -40.42,-16.67 -11.11,-11.11 -16.67,-24.58 -16.67,-40.42l0 -218.75c0,-15.83 5.56,-29.31 16.67,-40.42 11.11,-11.11 24.58,-16.67 40.42,-16.67l218.75 0c16.39,0 29.58,5.35 39.58,16.04 10,10.69 15.83,24.37 17.5,41.04l0 0c0,19.17 -7.78,34.44 -23.33,45.83l-120 90 -116.67 0c27.5,-20 55.14,-40 82.92,-60 33.06,-24.17 59.86,-45 80.42,-62.5l-166.25 0 0 192.5 262.91 0 0 70zm357.91 -0.42l-275.83 0c-15.56,0 -28.89,-5.56 -40,-16.67 -11.11,-11.11 -16.67,-24.44 -16.67,-40l0 -219.17c0,-15.56 5.56,-28.89 16.67,-40 11.11,-11.11 24.44,-16.67 40,-16.67l118.57 0 0 0.67 0 0.56 0 0.33 0 0.56 0 0.34 0 0.56 0 0.33 0 0.56 0 0.34 0 0.56 0 0.33 0 0.56 0 0.34 0 0.56 0 0.33 0 0.56 0 0.9 0 0.33 0 0.56 0 0.34 0 0.56 0 0.33 0 0.56 0 0.34 0 0.56 0 0.33 0 0.56 0 0.34 0 0.56 0 0.33 0 0.56 0 0.33 0 0.56 0 0.34 0 0.56 0 0.33 0 0.56 0 0.34 0 0.56 0 0.33 0 0.56 0 0.34 0 0.56 0 0.33 0 0.56 0 0.34 0 0.56 0 0.33 0 0.56 0 0.34 0 0.56 0 0.89 0 0.34 0 0.56 0 0.33 0 0.56 0 0.34 0 0.56 0 0.33 0 0.56 0 0.34 0 0.56 0 0.33 0 0.56 0 0.34 0 0.56 0 0.33 0 0.56 0 0.34 0 0.56 0 0.33 0 0.56 0 0.34 0 0.56 0 0.33 0 0.9 0 0.56 0 0.33 0 0.56 0 0.34 0 0.56 0 0.33 0 0.56 0 0.33 0 0.56 0 0.33 0 0.56 0 0.33 0 0.56 0 0.34 0 0.56 0 0.33 0 0.56 0 0.34 0 0.56 0 0.33 0 0.56 0 0.34 0 0.56 0 0.33 0 0.56 0 0.34 0 0.56 0 0.33 0 0.56 0 0.34 0 0.56 0 0.33 0 0.56 0 0.34 0 0.56 0 0.33 0 0.56 0 0.34 0 0.56 0 0.33 0 0.56 0 0.34 0 0.56 0 0.33 0 0.56 0 0.34 0 0.56 0 0.33 0 0.56 0 0.34 0 0.56 0 0.89 0 0.34 0 0.56 0 0.33 0 0.56 0 0.34 0 0.56 0 0.33 0 0.56 0 0.34 0 0.56 0 0.33 0 0.56 0 0.33 0 0.56 0 0.33 0 0.56 0 0.33 0 0.56 0 0.34 0 0.56 0 0.33 0 0.56 0 0.34 0 0.37 -105.24 0 0 192.5 262.5 0 0 70zm-133.63 -332.5l50.57 0 0 0.33 0 0.34 0 0.56 0 0.33 0 0.56 0 0.34 0 0.56 0 0.33 0 0.56 0 0.34 0 0.56 0 0.33 0 0.56 0 0.34 0 0.56 0 0.33 0 0.56 0 0.34 0 0.56 0 0.33 0 0.56 0 0.34 0 0.56 0 0.33 0 0.56 0 0.34 0 0.56 0 0.33 0 0.56 0 0.34 0 0.56 0 0.33 0 0.56 0 0.33 0 0.56 0 0.34 0 0.56 0 0.33 0 0.56 0 0.34 0 0.56 0 0.33 0 0.56 0 0.34 0 0.56 0 0.33 0 0.56 0 0.34 0 0.56 0 0.33 0 0.56 0 0.34 0 0.56 0 0.33 0 0.56 0 0.34 0 0.56 0 0.33 0 0.56 0 0.34 0 0.56 0 0.33 0 0.56 0 0.34 0 0.56 0 0.33 0 0.56 0 0.34 0 0.56 0 0.33 0 0.56 0 0.34 0 0.56 0 0.33 0 0.56 0 0.34 0 0.56 0 0.33 0 0.56 0 0.34 0 0.56 0 0.33 0 0.56 0 0.34 0 0.56 0 0.33 0 0.56 0 0.33 0 0.56 0 0.33 0 0.56 0 0.33 0 0.56 0 0.34 0 0.56 0 0.33 0 0.56 0 0.34 0 0.56 0 0.33 0 0.56 0 0.34 0 0.56 0 0.33 0 0.56 0 0.34 0 0.56 0 0.33 0 0.56 0 0.34 0 0.56 0 0.33 0 0.56 0 0.34 0 0.56 0 0.33 0 0.56 0 0.34 0 0.56 0 0.33 0 0.56 0 0.34 0 0.56 0 0.33 0 0.56 0 0.34 0 0.56 0 0.33 0 0.56 0 0.34 0 0.56 0 0.33 0 0.56 0 0.34 0 0.56 0 0.33 0 0.56 0 0.34 0 0.56 0 0.33 0 0.56 0 0.34 0 0.56 0 0.33 0 0.56 0 0.33 0 0.56 0 0.33 0 0.56 0 0.33 0 0.56 0 0.34 0 0.56 0 0.33 0 0.9 0 0.37 -50.57 0 0 -0.37 0 -0.34 0 -0.56 0 -0.33 0 -0.56 0 -0.34 0 -0.56 0 -0.33 0 -0.56 0 -0.33 0 -0.56 0 -0.33 0 -0.56 0 -0.33 0 -0.56 0 -0.34 0 -0.56 0 -0.33 0 -0.56 0 -0.34 0 -0.56 0 -0.33 0 -0.56 0 -0.34 0 -0.89 0 -0.56 0 -0.34 0 -0.56 0 -0.33 0 -0.56 0 -0.34 0 -0.56 0 -0.33 0 -0.56 0 -0.34 0 -0.56 0 -0.33 0 -0.56 0 -0.34 0 -0.56 0 -0.33 0 -0.56 0 -0.34 0 -0.56 0 -0.33 0 -0.56 0 -0.34 0 -0.56 0 -0.33 0 -0.56 0 -0.34 0 -0.56 0 -0.33 0 -0.56 0 -0.34 0 -0.56 0 -0.33 0 -0.56 0 -0.34 0 -0.56 0 -0.33 0 -0.56 0 -0.34 0 -0.56 0 -0.33 0 -0.56 0 -0.33 0 -0.56 0 -0.33 0 -0.56 0 -0.33 0 -0.56 0 -0.34 0 -0.56 0 -0.33 0 -0.56 0 -0.9 0 -0.33 0 -0.56 0 -0.34 0 -0.56 0 -0.33 0 -0.56 0 -0.34 0 -0.56 0 -0.33 0 -0.56 0 -0.34 0 -0.56 0 -0.33 0 -0.56 0 -0.34 0 -0.56 0 -0.33 0 -0.56 0 -0.34 0 -0.56 0 -0.33 0 -0.56 0 -0.34 0 -0.89 0 -0.56 0 -0.34 0 -0.56 0 -0.33 0 -0.56 0 -0.34 0 -0.56 0 -0.33 0 -0.56 0 -0.34 0 -0.56 0 -0.33 0 -0.56 0 -0.34 0 -0.56 0 -0.33 0 -0.56 0 -0.34 0 -0.56 0 -0.33 0 -0.56 0 -0.33 0 -0.56 0 -0.34 0 -0.56 0 -0.33 0 -0.56 0 -0.34 0 -0.56 0 -0.33 0 -0.56 0 -0.34 0 -0.56 0 -0.33 0 -0.9 0 -0.56 0 -0.33 0 -0.56 0 -0.34 0 -0.56 0 -0.33 0 -0.56 0 -0.34 0 -0.56 0 -0.33 0 -0.56 0 -0.34 0 -0.56 0 -0.33 0 -0.56 0 -0.67zm74.19 0l59.44 0 0 70 -59.44 0 0 -0.37 0 -0.9 0 -0.33 0 -0.56 0 -0.34 0 -0.56 0 -0.33 0 -0.56 0 -0.33 0 -0.56 0 -0.33 0 -0.56 0 -0.33 0 -0.56 0 -0.34 0 -0.56 0 -0.33 0 -0.56 0 -0.34 0 -0.56 0 -0.33 0 -0.56 0 -0.34 0 -0.56 0 -0.33 0 -0.56 0 -0.34 0 -0.56 0 -0.33 0 -0.56 0 -0.34 0 -0.56 0 -0.33 0 -0.56 0 -0.34 0 -0.56 0 -0.33 0 -0.56 0 -0.34 0 -0.56 0 -0.33 0 -0.56 0 -0.34 0 -0.56 0 -0.33 0 -0.56 0 -0.34 0 -0.56 0 -0.33 0 -0.56 0 -0.34 0 -0.56 0 -0.33 0 -0.56 0 -0.34 0 -0.56 0 -0.33 0 -0.56 0 -0.34 0 -0.56 0 -0.33 0 -0.56 0 -0.34 0 -0.56 0 -0.33 0 -0.56 0 -0.33 0 -0.56 0 -0.33 0 -0.56 0 -0.33 0 -0.56 0 -0.34 0 -0.56 0 -0.33 0 -0.56 0 -0.34 0 -0.56 0 -0.33 0 -0.56 0 -0.34 0 -0.56 0 -0.33 0 -0.56 0 -0.34 0 -0.56 0 -0.33 0 -0.56 0 -0.34 0 -0.56 0 -0.33 0 -0.56 0 -0.34 0 -0.56 0 -0.33 0 -0.56 0 -0.34 0 -0.56 0 -0.33 0 -0.56 0 -0.34 0 -0.56 0 -0.33 0 -0.56 0 -0.34 0 -0.56 0 -0.33 0 -0.56 0 -0.34 0 -0.56 0 -0.33 0 -0.56 0 -0.34 0 -0.56 0 -0.33 0 -0.56 0 -0.34 0 -0.56 0 -0.33 0 -0.56 0 -0.34 0 -0.56 0 -0.33 0 -0.56 0 -0.33 0 -0.56 0 -0.34 0 -0.56 0 -0.33 0 -0.56 0 -0.34 0 -0.56 0 -0.33 0 -0.56 0 -0.34 0 -0.56 0 -0.33 0 -0.56 0 -0.34 0 -0.56 0 -0.33 0 -0.56 0 -0.34 0 -0.56 0 -0.33 0 -0.56 0 -0.34 0 -0.56 0 -0.33 0 -0.56 0 -0.34 0 -0.56 0 -0.33 0 -0.56 0 -0.34 0 -0.33zm417.78 332.5l-70.42 0 0 -131.25 -192.5 0 0 131.25 -70 0 0 -332.91 70 0 0 131.67 192.5 0 0 -131.67 70.42 0 0 332.91z"/>
   <circle class="fil2 str0" cx="392.19" cy="332.1" r="47.24"/>
  </g>
 </g>
</svg>
